<mxfile host="app.diagrams.net" agent="Mozilla/5.0 (Windows NT 10.0; Win64; x64) AppleWebKit/537.36 (KHTML, like Gecko) Chrome/128.0.0.0 Safari/537.36" version="24.7.8">
  <diagram name="페이지-1" id="jKemTNRNtOt3Wxa_5PS7">
    <mxGraphModel dx="1434" dy="1342" grid="0" gridSize="10" guides="1" tooltips="1" connect="1" arrows="1" fold="1" page="0" pageScale="1" pageWidth="827" pageHeight="1169" math="0" shadow="0">
      <root>
        <mxCell id="0" />
        <mxCell id="1" parent="0" />
        <mxCell id="dIvwbMfFmFAUGfn5cbAK-3" value="" style="edgeStyle=none;curved=1;rounded=0;orthogonalLoop=1;jettySize=auto;html=1;fontSize=12;startSize=8;endSize=8;" edge="1" parent="1" source="dIvwbMfFmFAUGfn5cbAK-1" target="dIvwbMfFmFAUGfn5cbAK-2">
          <mxGeometry relative="1" as="geometry" />
        </mxCell>
        <mxCell id="dIvwbMfFmFAUGfn5cbAK-1" value="if인가?" style="rhombus;whiteSpace=wrap;html=1;" vertex="1" parent="1">
          <mxGeometry x="62" y="-122" width="226" height="80" as="geometry" />
        </mxCell>
        <mxCell id="dIvwbMfFmFAUGfn5cbAK-27" style="edgeStyle=none;curved=1;rounded=0;orthogonalLoop=1;jettySize=auto;html=1;fontSize=12;startSize=8;endSize=8;" edge="1" parent="1" source="dIvwbMfFmFAUGfn5cbAK-2" target="dIvwbMfFmFAUGfn5cbAK-25">
          <mxGeometry relative="1" as="geometry" />
        </mxCell>
        <mxCell id="dIvwbMfFmFAUGfn5cbAK-2" value="부시인가?" style="rhombus;whiteSpace=wrap;html=1;" vertex="1" parent="1">
          <mxGeometry x="62" y="-6" width="226" height="80" as="geometry" />
        </mxCell>
        <mxCell id="dIvwbMfFmFAUGfn5cbAK-68" value="" style="edgeStyle=none;curved=1;rounded=0;orthogonalLoop=1;jettySize=auto;html=1;fontSize=12;startSize=8;endSize=8;" edge="1" parent="1" source="dIvwbMfFmFAUGfn5cbAK-4" target="dIvwbMfFmFAUGfn5cbAK-69">
          <mxGeometry relative="1" as="geometry">
            <mxPoint x="490" y="339" as="targetPoint" />
          </mxGeometry>
        </mxCell>
        <mxCell id="dIvwbMfFmFAUGfn5cbAK-98" value="조건식 속성" style="edgeLabel;html=1;align=center;verticalAlign=middle;resizable=0;points=[];fontSize=12;" vertex="1" connectable="0" parent="dIvwbMfFmFAUGfn5cbAK-68">
          <mxGeometry x="0.0159" y="1" relative="1" as="geometry">
            <mxPoint as="offset" />
          </mxGeometry>
        </mxCell>
        <mxCell id="dIvwbMfFmFAUGfn5cbAK-4" value="if문 조건의&lt;div&gt;속성은?&lt;/div&gt;" style="rhombus;whiteSpace=wrap;html=1;" vertex="1" parent="1">
          <mxGeometry x="62" y="297" width="226" height="80" as="geometry" />
        </mxCell>
        <mxCell id="dIvwbMfFmFAUGfn5cbAK-53" value="" style="edgeStyle=none;curved=1;rounded=0;orthogonalLoop=1;jettySize=auto;html=1;fontSize=12;startSize=8;endSize=8;" edge="1" parent="1" source="dIvwbMfFmFAUGfn5cbAK-25" target="dIvwbMfFmFAUGfn5cbAK-52">
          <mxGeometry relative="1" as="geometry" />
        </mxCell>
        <mxCell id="dIvwbMfFmFAUGfn5cbAK-25" value="물, 불 부시&lt;div&gt;(풀 x)&lt;/div&gt;" style="rounded=0;whiteSpace=wrap;html=1;" vertex="1" parent="1">
          <mxGeometry x="115" y="115" width="120" height="60" as="geometry" />
        </mxCell>
        <mxCell id="dIvwbMfFmFAUGfn5cbAK-48" value="" style="edgeStyle=none;curved=1;rounded=0;orthogonalLoop=1;jettySize=auto;html=1;fontSize=12;startSize=8;endSize=8;" edge="1" parent="1" source="dIvwbMfFmFAUGfn5cbAK-45" target="dIvwbMfFmFAUGfn5cbAK-47">
          <mxGeometry relative="1" as="geometry" />
        </mxCell>
        <mxCell id="dIvwbMfFmFAUGfn5cbAK-45" value="공격" style="whiteSpace=wrap;html=1;rounded=0;" vertex="1" parent="1">
          <mxGeometry x="120" y="705" width="120" height="60" as="geometry" />
        </mxCell>
        <mxCell id="dIvwbMfFmFAUGfn5cbAK-47" value="기존 프로세스 대로" style="whiteSpace=wrap;html=1;rounded=0;" vertex="1" parent="1">
          <mxGeometry x="120" y="808" width="120" height="60" as="geometry" />
        </mxCell>
        <mxCell id="dIvwbMfFmFAUGfn5cbAK-54" style="edgeStyle=none;curved=1;rounded=0;orthogonalLoop=1;jettySize=auto;html=1;fontSize=12;startSize=8;endSize=8;" edge="1" parent="1" source="dIvwbMfFmFAUGfn5cbAK-52" target="dIvwbMfFmFAUGfn5cbAK-4">
          <mxGeometry relative="1" as="geometry" />
        </mxCell>
        <mxCell id="dIvwbMfFmFAUGfn5cbAK-96" style="edgeStyle=none;curved=1;rounded=0;orthogonalLoop=1;jettySize=auto;html=1;fontSize=12;startSize=8;endSize=8;" edge="1" parent="1" source="dIvwbMfFmFAUGfn5cbAK-52" target="dIvwbMfFmFAUGfn5cbAK-69">
          <mxGeometry relative="1" as="geometry">
            <mxPoint x="414" y="316.93311036789305" as="targetPoint" />
          </mxGeometry>
        </mxCell>
        <mxCell id="dIvwbMfFmFAUGfn5cbAK-97" value="적 속성" style="edgeLabel;html=1;align=center;verticalAlign=middle;resizable=0;points=[];fontSize=12;" vertex="1" connectable="0" parent="dIvwbMfFmFAUGfn5cbAK-96">
          <mxGeometry x="-0.1524" y="-3" relative="1" as="geometry">
            <mxPoint as="offset" />
          </mxGeometry>
        </mxCell>
        <mxCell id="dIvwbMfFmFAUGfn5cbAK-52" value="물 or 불&lt;div&gt;랜덤 소환&lt;/div&gt;" style="whiteSpace=wrap;html=1;rounded=0;" vertex="1" parent="1">
          <mxGeometry x="115" y="207" width="120" height="60" as="geometry" />
        </mxCell>
        <mxCell id="dIvwbMfFmFAUGfn5cbAK-72" value="" style="edgeStyle=none;curved=1;rounded=0;orthogonalLoop=1;jettySize=auto;html=1;fontSize=12;startSize=8;endSize=8;" edge="1" parent="1" source="dIvwbMfFmFAUGfn5cbAK-69" target="dIvwbMfFmFAUGfn5cbAK-71">
          <mxGeometry relative="1" as="geometry" />
        </mxCell>
        <mxCell id="dIvwbMfFmFAUGfn5cbAK-69" value="계산기" style="whiteSpace=wrap;html=1;" vertex="1" parent="1">
          <mxGeometry x="654" y="307" width="120" height="60" as="geometry" />
        </mxCell>
        <mxCell id="dIvwbMfFmFAUGfn5cbAK-93" style="edgeStyle=none;curved=1;rounded=0;orthogonalLoop=1;jettySize=auto;html=1;entryX=0.5;entryY=0;entryDx=0;entryDy=0;fontSize=12;startSize=8;endSize=8;" edge="1" parent="1" source="dIvwbMfFmFAUGfn5cbAK-71" target="dIvwbMfFmFAUGfn5cbAK-84">
          <mxGeometry relative="1" as="geometry" />
        </mxCell>
        <mxCell id="dIvwbMfFmFAUGfn5cbAK-71" value="넘겨받은것을 토대로&lt;div&gt;계산함&lt;/div&gt;&lt;div&gt;(참/거짓 반환)&lt;/div&gt;" style="rhombus;whiteSpace=wrap;html=1;" vertex="1" parent="1">
          <mxGeometry x="623" y="419" width="182" height="80" as="geometry" />
        </mxCell>
        <mxCell id="dIvwbMfFmFAUGfn5cbAK-86" value="" style="edgeStyle=none;curved=1;rounded=0;orthogonalLoop=1;jettySize=auto;html=1;fontSize=12;startSize=8;endSize=8;" edge="1" parent="1" source="dIvwbMfFmFAUGfn5cbAK-84" target="dIvwbMfFmFAUGfn5cbAK-85">
          <mxGeometry relative="1" as="geometry" />
        </mxCell>
        <mxCell id="dIvwbMfFmFAUGfn5cbAK-88" value="예" style="edgeLabel;html=1;align=center;verticalAlign=middle;resizable=0;points=[];fontSize=12;" vertex="1" connectable="0" parent="dIvwbMfFmFAUGfn5cbAK-86">
          <mxGeometry x="-0.3462" y="2" relative="1" as="geometry">
            <mxPoint x="-4" y="3" as="offset" />
          </mxGeometry>
        </mxCell>
        <mxCell id="dIvwbMfFmFAUGfn5cbAK-91" value="" style="edgeStyle=none;curved=1;rounded=0;orthogonalLoop=1;jettySize=auto;html=1;fontSize=12;startSize=8;endSize=8;" edge="1" parent="1" source="dIvwbMfFmFAUGfn5cbAK-84" target="dIvwbMfFmFAUGfn5cbAK-90">
          <mxGeometry relative="1" as="geometry" />
        </mxCell>
        <mxCell id="dIvwbMfFmFAUGfn5cbAK-92" value="아니오" style="edgeLabel;html=1;align=center;verticalAlign=middle;resizable=0;points=[];fontSize=12;" vertex="1" connectable="0" parent="dIvwbMfFmFAUGfn5cbAK-91">
          <mxGeometry x="-0.3172" y="-1" relative="1" as="geometry">
            <mxPoint x="6" y="4" as="offset" />
          </mxGeometry>
        </mxCell>
        <mxCell id="dIvwbMfFmFAUGfn5cbAK-84" value="조건식이 참인가?" style="rhombus;whiteSpace=wrap;html=1;" vertex="1" parent="1">
          <mxGeometry x="67" y="459" width="226" height="80" as="geometry" />
        </mxCell>
        <mxCell id="dIvwbMfFmFAUGfn5cbAK-94" style="edgeStyle=none;curved=1;rounded=0;orthogonalLoop=1;jettySize=auto;html=1;fontSize=12;startSize=8;endSize=8;" edge="1" parent="1" source="dIvwbMfFmFAUGfn5cbAK-85" target="dIvwbMfFmFAUGfn5cbAK-45">
          <mxGeometry relative="1" as="geometry" />
        </mxCell>
        <mxCell id="dIvwbMfFmFAUGfn5cbAK-85" value="0번 인덱스&lt;div&gt;공격블록&lt;/div&gt;" style="whiteSpace=wrap;html=1;" vertex="1" parent="1">
          <mxGeometry x="120" y="591" width="120" height="60" as="geometry" />
        </mxCell>
        <mxCell id="dIvwbMfFmFAUGfn5cbAK-95" style="edgeStyle=none;curved=1;rounded=0;orthogonalLoop=1;jettySize=auto;html=1;fontSize=12;startSize=8;endSize=8;" edge="1" parent="1" source="dIvwbMfFmFAUGfn5cbAK-90" target="dIvwbMfFmFAUGfn5cbAK-45">
          <mxGeometry relative="1" as="geometry" />
        </mxCell>
        <mxCell id="dIvwbMfFmFAUGfn5cbAK-90" value="1번 인덱스&lt;div&gt;공격블록&lt;/div&gt;" style="whiteSpace=wrap;html=1;" vertex="1" parent="1">
          <mxGeometry x="342" y="591" width="120" height="60" as="geometry" />
        </mxCell>
      </root>
    </mxGraphModel>
  </diagram>
</mxfile>
